# xmcd
#
# Track frame offsets:
#	150
#	25556
#	48693
#	73238
#	102548
#	122943
#	150503
#	172241
#	189843
#	208202
#
# Disc length: 2968 seconds
#
# Revision: 0
# Processed by: cddbd v1.5.1PL2 Copyright (c) Steve Scherf et al.
# Submitted via: dBpowerAMP V4.0
#
DISCID=920b960a
DTITLE=Zuba - Allez!
DYEAR=2006
DGENRE=World
TTITLE0=Allez! Allez!
TTITLE1=Mes Fantômes
TTITLE2=Kuleb
TTITLE3=Gigadeh
TTITLE4=Moonlight
TTITLE5=Tomayziyi (No War)
TTITLE6=Bomosagee
TTITLE7=Ormoado
TTITLE8=Zuba
TTITLE9=Kuwa
EXTD=
EXTT0=
EXTT1=
EXTT2=
EXTT3=
EXTT4=
EXTT5=
EXTT6=
EXTT7=
EXTT8=
EXTT9=
PLAYORDER=
